<?xml version="1.0" encoding="UTF-8"?><svg id="a" xmlns="http://www.w3.org/2000/svg" xmlns:xlink="http://www.w3.org/1999/xlink" viewBox="0 0 435 15"><defs><style>.c{clip-path:url(#b);}.d{fill:none;}</style><clipPath id="b"><rect class="d" width="435" height="15" transform="translate(435 15) rotate(180)"/></clipPath></defs><g class="c"><path d="M.37,74.37l-.38,.03H-1.08v6.24l1.45-.02-.38,.03H-1.08v2.78c1.46,.05,2.82,.13,3.64-.13,.63,.76,1.31,1.19,2.03,1.42H14.89c1.77-.93,3.72-1.23,5.65-1.46,.43,.28,.51,.97,.72,1.46h.19c.23-.84,.9-1.6,1.09-2.13,1.61,2.07,3.99,1,6.28,2.13h1.12c3.94-3.44,7.75,2.54,12.09-1.61,.13,.13,.7,1.13,.76,1.16,1.67-.16,1.09-.61,1.86,.45h2.1c.17-.04,.34-.08,.48-.09,.03,.02,.05,.06,.07,.09h3.09c2.6-.91,5.98-1.1,7.93,0h.68c3.7-2.09,16.72-2.45,18.97-.44,1.41-1.1,1.46-.81,3.25-.99-.05,.43,0,.93,.07,1.42h45.71c3.57-.61,7.31-1.7,10.73,0h1.39c5.82-3.03,13.48-.3,19.47-.86,6.87-.64,12.78,.65,20.65,.68,6.98,.03,11.9-1.4,19.29-.65,5.28,.53,14.31-3.18,18.15-.3,3.6-1.86,8.37-1.09,11.69-.5,2.15-2.07,4.23-1.71,4.95,1.33,4.52,.59,12.52-5.67,13.85-1.47,1.06-.66,1.9-1.42,2.63-2.25h-.52s.27-.02,.55-.03l.03-.04c-1.06,0-.98-.03-2.28-.02,1.25,.02-1.01,.03-1.44,.06l.02-.04c-1.87,.02-3.3,.05-5.75,.07-.12-.02-2.19-.06-1.83-.08,3.09-.04,7.25-.03,11.31-.02,1.48-1.72,2.44-3.75,3.42-5.98,.53-.21,1-.09,1.52-.18-1.05,0-2.07-.01-3.56,0,.47-.02-.94-.01-.46-.03l-1.53,.02s1.08-.04,1.21-.07c-1.76,.02-1.39-.03-2.91-.01,1.25,.02-1.01,.03-1.44,.06l.02-.04c-1.87,.02-3.3,.05-5.75,.07-.12-.02-2.19-.06-1.83-.08,4.12-.05,10.17,0,15.31-.01l-.25,.02c.62,0,1.08,0,1.44,0,.21-2.31,2.58-4.84,5.21-6.19-1,0-1.44,0-2.1-.03-.71,0-1.65,0-1.66,.02h1.63c-2.93,.03-4.06-.04-6.89,0,.47-.01-.94-.01-.46-.03l-1.53,.02s1.08-.04,1.21-.08c-1.76,.02-1.39-.03-2.91,0,1.25,.02-1.01,.03-1.44,.06l.02-.04c-1.87,.02-3.3,.05-5.75,.07-.12-.02-2.19-.06-1.83-.08,4.12-.05,10.17,0,15.31-.01l-.25,.02c2.56,.03,2.26-.05,4.7-.04l-.6,.03c.7-.01,1.71-.02,2.75-.02,1.38-.67,2.81-1,4.04-.79,1.03,.18,1.4,.47,1.35,.82,2.17,0,4.26-.05,4.22,0,.36,0,.13-.02-.2-.03,2.69-.02,6.4,.02,7.83-.01l-.49,.03c2.33,.02,3.89-.05,6.8-.03,1.28,0-1.18,.02,.45,.03,2.93-.02,6.21-.03,8.9-.03-1.07,.04-2.59,.03-4.59,.06,2.78,.04-1.98,0-.38,.04,3.16-.01,2.48-.05,5.87-.04,1.29-.02-.68-.03-1.04-.03,1.42-.02,3.16,0,3.42-.05,1.61,.04,.79,.05,3.7,.06,1.65-.03-.66-.06,2.13-.05,1.14,.04,1.88-.02,3.27,0-.23,0-.82,0-.82,.01,3.49,.02,.6,0,3.62,.02,.4-.09,6.18,.01,6.81-.06-.49,.04,2.8,0,1.61,.04,2.24-.03,4.57-.01,6.32-.02,2.76,.08,7.99-.08,8.5,.05,1.29,0,2.02-.06,3.89-.05-.24,.01-.37,.03,.45,.03,1.86,.02,3.06-.05,5.17-.06,1.75,.01,1.13,.06,3.37,.04h.48c1.97,.02-1.08,.04-2.03,.05l.12-.02c-1.3,.03-3.64,.04-5.39,.05-2.99-.08-6.46,.05-10.28,0l.27-.06c-2.22,.01-3.37-.02-5.6-.01-.82,0-.36,.02-.95,.03,2.22,0,4.43,.01,5.6,.01-.87,.09-6.42-.01-9.26,.04-1.05,0-.67-.05-2.08-.04-.77,.04-2.45,.01-3.82,.01h-.94l.17,.04-1.61-.03h2.38l1.01-.03s-1.39-.02-2.32-.02c-2.01,.04-5.42,.09-7.97,.04l-1.89,.05c-1.62-.03-3.72-.02-5.24-.03l.11,.03c-.8-.03-1.75,0-2.58,.01l-.45-.03c-2.22,0-4.12,.04-5.4,.03,1.66-.04-.23,0,1.67-.05-1.42,.02-2.43-.03-3.51,0-1.87,0-1.61-.03-2.31-.04,.56,.04-2,.04-2.37,.06-1.62-.03-3.17,.01-5.02,.02-.25,0-.45,0-.72,0,.25,0,.51,0,.72,0,.19,0,.34,0,.34,0-1.07-.02-1.08,0-1.92,0h-.77l.71-.02s-1.27-.03-2.21-.02c-.25,.02-3.27,0-3.64,.04-.18-.02-1.23-.02-2.09-.03-.33,1.42-7.28,3.85-7.47,4.88-.61,.4-1.2,.84-1.77,1.29,.41,0,.91-.02,1.7-.01l-.6,.03c1.53-.03,4.44,0,6.21-.03-2.11,.02-2.04,.09-4.71,.06,0,0-.13,.03,.45,.04,1.64,0,4.22-.03,4.01-.07,2.66,.04,6.46-.05,6.41,.01,.36,0,.13-.02-.2-.03,2.69-.02,6.4,.02,7.83-.01l-.49,.03c2.33,.02,3.89-.05,6.8-.03,1.28,0-1.18,.02,.45,.03,2.93-.02,6.21-.03,8.9-.03-1.07,.04-2.59,.03-4.59,.06,2.78,.04-1.98,0-.38,.04,3.16-.01,2.48-.05,5.87-.04,1.29-.02-.68-.02-1.04-.03,1.42-.02,3.16,0,3.42-.05,1.61,.04,.79,.05,3.7,.06,1.65-.03-.66-.06,2.13-.05,1.14,.04,1.88-.02,3.27,0-.23,0-.82,0-.82,.01,3.49,.02,.6-.01,3.62,.02,.4-.09,6.18,.01,6.81-.06-.49,.04,2.8,0,1.61,.04,2.24-.03,4.57-.01,6.32-.02,2.76,.08,7.99-.08,8.5,.05,1.29,0,2.02-.06,3.89-.05-.24,.01-.37,.03,.45,.03,1.86,.02,3.06-.05,5.17-.06,1.75,.01,1.13,.06,3.37,.04l.48-.02c1.97,.03-1.08,.06-2.03,.07l.12-.02c-1.3,.03-3.64,.04-5.39,.05-2.99-.08-6.46,.05-10.28,0l.27-.05c-2.22,.01-3.37-.02-5.6-.01-.82,0-.36,.02-.95,.03,2.22,0,4.43,.01,5.6,.01-.87,.09-6.42-.01-9.26,.04-1.05,0-.67-.05-2.08-.04-.77,.04-2.45,.01-3.82,.01h-.94l.17,.04-1.61-.03h2.38l1.01-.02s-1.39-.02-2.32-.02c-2.01,.04-5.42,.09-7.97,.04l-1.89,.05c-1.62-.03-3.72-.02-5.24-.03l.11,.03c-.8-.03-1.75,0-2.58,.01l-.45-.03c-2.22,0-4.12,.04-5.4,.03,1.66-.04-.23,0,1.67-.05-1.42,.02-2.43-.03-3.51,0-1.87,0-1.61-.03-2.31-.04,.56,.04-2,.04-2.37,.06-1.62-.03-3.16,.01-5.01,.02-.25,0-.46,0-.72,0,.25,0,.52,0,.72,0,.19,0,.33,0,.34,0-1.07-.02-1.08,0-1.92,0h-.77l.71-.02s-1.27-.03-2.21-.02c-.25,.02-3.27,0-3.64,.04-.33-.03-3.62-.02-3.24-.06-1.75,0-2.48,.04-3.77,.05-1.51-.01-1.98,0-2.78-.04-.71,0-1.65,0-1.66,.03h1.63c-.63,.01-1.16,.01-1.66,.01-2.11,1.68-3.93,3.7-5.39,6.05,.02,.04,.05,.06,.08,.1,.92,0,1.82,0,2.7,0l-.25,.02c2.56,.03,2.26-.05,4.7-.04l-.6,.03c1.53-.03,4.44,0,6.21-.03-2.11,.02-2.04,.09-4.71,.06,0,.01-.13,.03,.45,.04,1.64,0,4.22-.03,4.01-.07,2.66,.05,6.46-.05,6.41,.01,.36,0,.13-.02-.2-.03,2.69-.02,6.4,.02,7.83-.01l-.49,.03c2.33,.02,3.89-.05,6.8-.03,1.28,0-1.18,.02,.45,.03,2.93-.02,6.21-.03,8.9-.03-1.07,.04-2.59,.03-4.59,.06,2.78,.04-1.98,0-.38,.04,3.16-.01,2.48-.05,5.87-.04,1.29-.02-.68-.03-1.04-.03,1.42-.02,3.16,0,3.42-.05,1.61,.04,.79,.05,3.7,.06,1.65-.02-.66-.06,2.13-.05,1.14,.04,1.88-.02,3.27,0-.23,0-.82,0-.82,.01,3.49,.02,.6,0,3.62,.02,.4-.09,6.18,.01,6.81-.06-.49,.04,2.8,0,1.61,.04,2.24-.02,4.57-.01,6.32-.02,2.76,.08,7.99-.08,8.5,.05,1.29,0,2.02-.06,3.89-.05-.24,.01-.37,.03,.45,.03,1.86,.01,3.06-.05,5.17-.06,1.75,.01,1.13,.06,3.37,.04h.48c1.97,.02-1.08,.04-2.03,.05l.12-.02c-1.3,.03-3.64,.04-5.39,.05-2.99-.08-6.46,.05-10.28,0l.27-.06c-2.22,.02-3.37-.02-5.6-.01-.82,0-.36,.02-.95,.03,2.22,0,4.43,.01,5.6,.01-.87,.09-6.42-.01-9.26,.04-1.05,0-.67-.05-2.08-.04-.77,.04-2.45,.01-3.82,.01h-.94l.17,.03-1.61-.03h2.38l1.01-.02s-1.39-.02-2.32-.02c-2.01,.04-5.42,.09-7.97,.04l-1.89,.05c-1.62-.03-3.72-.02-5.24-.03l.11,.03c-.8-.03-1.75,0-2.58,.01l-.45-.03c-2.22,0-4.12,.04-5.4,.03,1.66-.04-.23,0,1.67-.05-1.42,.02-2.43-.03-3.51,0-1.87,0-1.61-.03-2.31-.04,.56,.04-2,.04-2.37,.06-1.62-.03-3.16,.01-5.02,.02-.25,0-.46,0-.72,0,.25,0,.51,0,.72,0,.19,0,.33,0,.34,0-1.07-.02-1.08,0-1.92,0h-.77l.71-.02s-1.27-.03-2.21-.02c-.25,.02-3.27,0-3.64,.04-.33-.04-3.62-.02-3.24-.06-1.75,0-2.48,.04-3.77,.05-1.51-.01-1.98,0-2.78-.04-.71,0-1.65,0-1.66,.03h1.63c-2.93,.03-4.06-.04-6.89,0,.15,0,.1,0-.01-.01,1.11,1.45,2.66,2.24,4.43,2.38,2.32-1.92,5.79-1.72,8.18-.13,1.25-2.41,1.1-.74,3.2-1.65,1.03,1.92,2.65,2.94,4.61,3.41h7.76c5.45-.71,11.14-2.1,14.09,0h2.07c1.45-.34,2.86-.73,4.26-1.61,.48,.34,.97,1.03,1.47,1.32,4.03-2.24,6.31-.6,9.63,.29h8.96c.99-.09,1.95-.12,2.92,0h1.46c.5-.34,.95-.83,1.49-.94,.44,.43,.86,.73,1.27,.94h3.28c1.66-.64,3.19-1.72,4.98-.27,1.95-2.75,4.46-3.39,5.98-.02,2.32-1.05,9.18-3.29,10.64-1.29,2.45-.65,1.36-.64,4.03-.04,2.21-1.37,2.07-.33,3.8-.18,1.09,.73,2.61,1.34,4.37,1.8h15.24c1.65-.5,3.13-1.18,4.27-2.11,.16,.64,.04,1.18,.21,1.82,.62,.15,1.41,.24,2.31,.29h5.31c4.05-.13,8.8-.41,12.91-.3l-.65-3.18-.16-.65c-.28,0-.57,0-.85,0l.84-.03h0c-.33,0-.36,0-.47-.01,.05,0,.23,0,.46,0l-.62-2.55c-1.51-.25-3.03-.49-4.55-.7l-2.3-.19-2.3,.04h-.14l.09-.11c.32-.39,.61-.8,.9-1.22l.45-.61c.15-.18,.3-.35,.46-.53-.12-.11-.24-.23-.36-.35l-1.84,.02c-.1-.03,.83-.02,1.32-.05-1.73-.01-2.53,.04-3.48,.05h.07c-2.93,.02-5.46-.04-7.12,0l.57,.02c-1.98-.02-4.65-.03-6.77-.01-.01,.02-1.65,.04-2.11,.03,1.11,0,.74-.02,1.32-.02-3.17,.02-9.19,.03-10.64,0-.96,.03,.92,.02-.26,.04-.7-.01-.68-.05-2.08-.04l-1.52,.02c.47-.02,1.99-.01,1.53-.04-1.28-.02-1.53,.03-2.34,0-.24,.01-.6,.04-1.31,.05,.47,0,1.16,.01,1.39,.02-.71,0-1.53,.02-1.99,.01h.23c-2.06-.07-3.4,.02-6.52-.03,.47-.02,1.65-.02,2.36-.04-2.7,.03-2.3-.05-3.98,.01h.59c-2.12,.02-4,.05-6.33,.02,1.29,0,.13-.02,.37-.03,2.5-.07,4.1-.02,7.61-.04-.12,0-1.06,.01-.13,.03,.72,0,1.38,0,1.99-.01-.09,0-.14,0-.11,0,1.51,.01,2.44,.02,3.97,0h1.17l-.22-.02c2.19,.05,4.11-.03,6.2-.02l-.49,.05c3.68-.09,5.38,0,9.95-.04l-1.42,.02c6.36-.04,13.61-.03,20.01-.03-.16-.18-.3-.38-.39-.61-.19-.41-.23-.89-.14-1.33,.06-.45,.26-.86,.45-1.25,.22-.39,.46-.76,.72-1.11,.51-.68,1.07-1.31,1.65-1.92-.62,0-1.3,0-1.5,0l-2.59,.03c-.1-.03,.83-.02,1.32-.05-1.73-.01-2.53,.04-3.48,.04h.07c-2.93,.02-5.46-.04-7.12,0l.57,.02c-1.98-.02-4.65-.03-6.77-.01-.01,.02-1.65,.04-2.11,.03,1.11,0,.74-.01,1.32-.02-3.17,.02-9.19,.03-10.64,0-.96,.03,.92,.02-.26,.04-.7-.01-.68-.05-2.08-.04l-1.52,.02c.47-.01,1.99-.01,1.53-.04-1.28-.02-1.53,.03-2.34,0-.24,.01-.6,.04-1.31,.05,.47,0,1.16,.01,1.39,.02-.71,0-1.53,.02-1.99,.01h.23c-2.06-.07-3.4,.02-6.52-.03,.47-.02,1.65-.01,2.36-.04-2.7,.03-2.3-.05-3.98,.01h.59c-2.12,.02-4,.05-6.33,.03,1.29,0,.13-.02,.37-.03,2.5-.07,4.1-.02,7.61-.04-.12,0-1.06,.01-.13,.03,.72,0,1.38,0,1.98-.01-.09,0-.14,0-.11,0,1.51,.01,2.44,.02,3.97,0h1.17l-.22-.02c2.19,.05,4.11-.03,6.2-.02l-.49,.05c3.68-.09,5.38,0,9.95-.04l-1.42,.02c7.14-.04,15.41-.03,22.33-.03,.62-.65,1.27-1.28,1.91-1.91,1.26-1.22,2.53-2.43,3.68-3.75,.16-.18,.3-.37,.46-.56-.27,0-.55,0-.82,0l.84-.03h0c-.33,0-.36,0-.47-.01,.05,0,.24,0,.49,0,.38-.48,.75-.96,1.06-1.49,.21-.37,.41-.76,.53-1.17,.14-.39,.18-.8,.17-1.21-.26-.13-.51-.29-.74-.47-.24-.2-.47-.41-.7-.62-.23-.21-.46-.4-.7-.58-.25-.18-.51-.31-.78-.43l-.14-.06,.11-.12c.2-.23,.44-.42,.59-.69,.18-.25,.34-.51,.47-.79,.29-.54,.5-1.13,.68-1.72,.19-.59,.33-1.2,.45-1.81,.09-.44,.16-.88,.22-1.32-.25,.02-1.24,.04-2.09,.04l.95-.03c-.47,0-.46,0-.59-.01,.13-.02,1.03,0,1.72,0,.02-.17,.05-.34,.07-.51,.16-1.24,.23-2.48,.24-3.73,0-1.22-.05-2.45-.27-3.64l-2.81-.85c-.97-.23-1.94-.49-2.92-.7l-1.48-.29c-.49-.09-.98-.2-1.48-.27-.99-.14-1.98-.31-2.98-.43-1-.11-1.99-.24-2.99-.34l-3-.27-6.01-.42h-.07v-.08c-.04-.31-.09-.62-.19-.93-1.03,0-2.06,0-2.99,0-.01,.02-1.65,.04-2.11,.03,1.28,0,.59-.02,1.65-.03-3.06,.03-9.48,.04-10.98,0-.96,.03,.92,.02-.26,.04-.7-.02-.68-.05-2.08-.05l-1.52,.02c.47-.02,1.99-.01,1.53-.04-1.28-.01-1.53,.03-2.34,0-.24,.01-.6,.04-1.31,.05,.47,0,1.16,.01,1.39,.02-.71,0-1.53,.02-1.99,.01h.23c-2.06-.07-3.4,.02-6.52-.03,.47-.01,1.65-.01,2.36-.04-2.7,.03-2.3-.05-3.98,.01h.59c-2.12,.02-4,.05-6.33,.02,1.29,0,.13-.02,.37-.03,2.5-.07,4.1-.02,7.61-.04-.12,0-1.06,.02-.13,.03,.7,0,1.34,0,1.93-.01-.05,0-.07,0-.05,0,1.51,.01,2.44,.01,3.97,0h1.17l-.22-.02c2.19,.05,4.11-.03,6.2-.02l-.49,.05c3.68-.09,5.38,0,9.95-.04l-1.42,.02c1.86-.01,3.79-.02,5.76-.02-.1-.3-.21-.59-.33-.89-.12-.31-.22-.62-.29-.95-.02-.17-.06-.33-.07-.5v-.36c-.35,.22-.68,.47-1.08,.62-.41,.2-.87,.34-1.34,.35h-.35c-.12-.02-.23-.06-.34-.09-.24-.04-.43-.18-.64-.29-.4-.25-.72-.6-1.01-.95-.57-.72-1.03-1.52-1.54-2.28-.19-.29-.4-.57-.61-.84-2.84,0-5.86,0-6.83-.02-.96,.03,.92,.02-.26,.04-.7-.02-.68-.05-2.08-.05l-1.52,.02c.47-.01,1.99-.01,1.53-.04-1.28-.01-1.53,.03-2.34,0-.24,.01-.6,.04-1.31,.05,.47,0,1.16,.01,1.39,.02-.71,0-1.53,.02-1.99,.01h.23c-2.06-.07-3.4,.02-6.52-.03,.47-.01,1.65-.01,2.36-.04-2.7,.03-2.3-.05-3.98,.01h.59c-2.12,.02-4,.05-6.33,.02,1.29,0,.13-.02,.37-.03,2.5-.07,4.1-.02,7.61-.04-.12,0-1.06,.01-.13,.03,.69,0,1.33,0,1.92-.01-.04,0-.06,0-.04,0,1.51,.01,2.44,.02,3.97,0h1.17l-.22-.02c2.19,.05,4.11-.03,6.2-.02l-.49,.05c2.64-.07,4.27-.03,6.67-.03-.05-.07-.09-.14-.14-.2-.29-.35-.58-.7-.93-.99-.67-.61-1.5-1.04-2.35-1.35-.85-.32-1.74-.54-2.62-.81-.44-.14-.87-.3-1.29-.48-.41-.2-.81-.42-1.18-.7-.36-.28-.69-.61-.97-.97-.17-.22-.32-.45-.46-.69h-.72c.16,0,.44,0,.72,0,0-.01-.01-.02-.02-.03-.62,0-.92,.02-1.51,0-.24,.01-.6,.04-1.31,.05,.47,0,1.16,.01,1.39,.02-.71,0-1.53,.02-1.99,.01h.23c-2.06-.07-3.4,.02-6.52-.03,.47-.01,1.65-.01,2.36-.04-2.7,.03-2.3-.05-3.98,.01h.59c-2.12,.02-4,.05-6.33,.02,1.29,0,.13-.02,.37-.03,2.5-.07,4.1-.02,7.61-.04-.12,0-1.06,.01-.13,.03,.7,0,1.35,0,1.94-.01-.06,0-.09,0-.07,0,1.51,.01,2.44,.01,3.97,0h1.17l-.22-.02c.84,.02,1.64,.02,2.42,0-.08-.14-.16-.29-.24-.43,.08,.15,.16,.29,.24,.43,1.26-.01,2.49-.04,3.77-.03l-.49,.05c3.68-.09,5.38,0,9.95-.04l-1.42,.02c8.79-.05,19.29-.02,26.89-.04,1.25,.06-2.11,.02-3.65,.06,.94-.03-1.99,0-2.44-.03l-2.59,.03c-.1-.03,.83-.02,1.32-.05-1.73-.01-2.53,.04-3.48,.04h.07c-2.93,.02-5.46-.04-7.12,0l.57,.02c-1.98-.02-4.65-.03-6.77-.01-.01,.02-1.65,.04-2.11,.03,1.11,0,.75-.01,1.31-.02-3.17,.02-9.19,.03-10.64,0-.96,.03,.92,.02-.26,.04-.7-.01-.68-.05-2.08-.05h-.8c.14,.25,.29,.48,.46,.69,.28,.36,.61,.68,.97,.95,.37,.27,.77,.5,1.18,.69,.42,.18,.85,.34,1.29,.47,.87,.27,1.77,.48,2.63,.79,.86,.31,1.7,.73,2.39,1.35,.44,.38,.82,.81,1.16,1.27,.9,0,1.92,0,3.14-.01l-1.42,.02c8.79-.05,19.29-.02,26.89-.04,1.25,.06-2.11,.02-3.65,.06,.94-.03-1.99,0-2.44-.03l-2.59,.03c-.1-.03,.83-.02,1.32-.05-1.73-.01-2.53,.04-3.48,.05h.07c-2.93,.02-5.46-.04-7.12,0l.57,.02c-1.98-.02-4.65-.03-6.77-.01-.01,.02-1.65,.04-2.11,.03,1.11,0,.74-.02,1.32-.02-1.01,0-2.31,.01-3.66,.02,.74,.99,1.35,2.08,2.09,3.04,.29,.35,.6,.68,.98,.92,.2,.11,.38,.23,.6,.27,.11,.03,.21,.07,.32,.08h.33c.44,0,.88-.14,1.28-.34,.42-.16,.78-.46,1.17-.68l.12-.07v.62c0,.16,.04,.32,.06,.48,.07,.31,.17,.62,.28,.92,.12,.3,.24,.61,.35,.92v.02c7.3-.02,15.02,0,20.97-.01,1.25,.06-2.11,.02-3.65,.06,.94-.03-1.99,0-2.44-.03l-2.59,.03c-.1-.03,.83-.02,1.32-.05-1.73-.01-2.53,.04-3.48,.05h.07c-2.93,.02-5.46-.04-7.12,0l.57,.02c-1.07-.01-2.34-.02-3.62-.02,.08,.28,.14,.56,.17,.85l5.95,.4,3,.26c1,.09,2,.22,3,.33,1,.12,1.99,.29,2.99,.42,.5,.07,.99,.18,1.48,.27l1.48,.28c.98,.22,1.96,.47,2.94,.7l2.89,.86,.07,.02v.07c.25,1.25,.31,2.5,.31,3.76,0,1.26-.09,2.51-.25,3.76-.09,.62-.18,1.24-.31,1.86-.12,.62-.27,1.23-.46,1.83-.19,.6-.4,1.2-.7,1.76-.13,.29-.3,.56-.49,.82-.11,.2-.27,.36-.43,.52l.94-.03c-.47,0-.46,0-.59-.01,.13-.02,1.07,0,1.76-.01,.22,.02-1.07,.06-2.12,.05-.03,.03-.06,.07-.09,.1,.24,.11,.48,.23,.7,.38,.25,.19,.49,.39,.72,.6,.23,.21,.45,.42,.68,.61,.23,.19,.49,.35,.75,.49l.06,.03v.06c0,.45-.03,.91-.19,1.33-.13,.43-.34,.83-.56,1.21-.29,.49-.63,.95-.98,1.39,.32,0,.7,0,1.03,0,.15,.01-.38,.03-1.06,.04-.19,.23-.37,.46-.56,.69-1.16,1.32-2.45,2.53-3.7,3.75-.6,.59-1.21,1.18-1.8,1.78,1.52,0,2.97,0,4.33,0,1.25,.06-2.11,.02-3.65,.06,.48-.01-.03-.02-.71-.02-.62,.64-1.21,1.3-1.75,2.01-.26,.35-.5,.71-.71,1.09-.19,.39-.38,.78-.44,1.21-.09,.42-.05,.86,.13,1.24,.1,.25,.26,.47,.45,.67,2.38,0,4.64,0,6.69,0,1.25,.06-2.11,.02-3.65,.06,.94-.03-1.99,0-2.44-.03h-.57c.1,.11,.2,.21,.31,.3l.05,.05-.05,.06c-.16,.19-.33,.37-.49,.56l-.45,.61c-.27,.38-.54,.75-.83,1.11l2.18-.03,2.31,.21c1.53,.22,3.05,.47,4.56,.74h.02v.02l.6,2.58c.36,0,.85,0,1.26,0,.16,.01-.48,.04-1.25,.05l.15,.65,.62,3.19c1.48,.04,2.88,.13,4.13,.3h11.07c.81-.3,1.66-.46,2.64-.29,.46-.55,.93-1.42,1.5-1.82,1.92,.7,2.97,.34,4.14,1.84,2.28-1.53,5-2.2,7.28-3.25-2.19-1.68-2.41-4.46-3.94-6.87h-1.13c.24-.02,1.41-.03,.72-.04-1.52,0-3.41,.03-2.14,.05-1.5-.03-6.65-.01-9.35,.02-2.21-.02,1.45-.08-1.72-.04-.25,.01,.21,.03,.56,.03,.35,0,.34,.01,.34,.01-1.85-.03-2.91-.01-5.02-.01l.03-.04c-3.14-.02-2.38,.07-4.93,.04l.6-.02h-1.74c-.82-.02-1.53,0-1.65,0-1.02-.05,1.88-.02,2.83-.04l.8,.03c1.76-.01,2.01-.06,3.42-.05,1.65,.02,6.78,.01,10.94,0,.09,0,.25,0,.62,0h-.62c-.17,.02-.07,.03-.45,.04,2.85,0,5.22-.04,7.86-.05-.21-.33-.44-.65-.71-.96,3.01-.15,3.5,.79,3.36,3.8,.49,.45,1.32-.27,1.79,.2,.15,.32,.3,.6,.45,.86V1.93c-3-.47-6.01-.77-7.85,.52-2.3-1.21-4.74-.88-6.48,1.13-3.43-.43-6.75-1.46-9.87,.18-1-2.85-2.47-3.25-4.26-.62-1.36-.49-2.88-.47-3.68-.72-2.34-.74-.97-1.59-2.98,.02-.41-.32-1.25-1.19-1.85-1.32-2.66,.94-5.42,1.42-7.99,2.65-2.46-2-6.73,.12-10.69-.56-3.82-.65-6.72-5.23-10.48,.4-.4-.58-.5-1.1-.98-1.67-4.09-1.11-9.61,.46-14.52,1.2-5.24,.79-12.26-2.54-16.51-.19-2.24-1.74-6.42-.89-9.99-.04-.13-.07-.51-.97-.75-1.17-.46,.53-1.42,1.18-2.02,1.82-.99,.02-3.21,.21-4.05,.02,.11-.32,.09-.64-.06-.96-1.44,.27-2.41,.05-3.73,.46-1.41-1.28-4.57-2.05-8.41-2.4h-10.59c-5.68,.44-10.9,1.53-12.97,3.08-.26-.13-1.25-1.13-1.53-1.35-.33,.24-.97,1.25-1.31,1.35-3.53-.52-7.58-2.52-11.14,0-2.76-1.74-5.34-.48-8.04,.7-.92-4.06-7.17-1.09-10.14,.48-.23-1.03-1.1-1.89-1.32-2.51-3.52,3.14-10.53,.22-15.21,1.17-.51-.73-.96-1.25-1.45-1.85-.48,.32-1.06,1.1-1.48,1.35-3.57-.57-12.68-1.64-14.51,1.44,.01,.01,.03,.03,.04,.04-.02,.49-.05,.49-.07,0,0-.01,.02-.02,.03-.04-.22-.21-1.19-1.26-1.33-1.42-.17,.1-1.45,1.3-1.5,1.3-1.96-.56-4.27-.61-6.38-.16-1.19-1.33-.5-.58-2.13-.69-.19-.04-1.07-.97-1.32-1.12-.84,.95-2.44,1.5-3.36,2.48-.06-1.07-.68-1.79-.73-2.98-2.19,.06-3.94-.25-5.91,.95-2.29-.51-3.72-.06-5.43-.93-.69,.17-2.17,.87-2.55,.95-5.74-.89-11.38-.61-16.64-1.05-1.62-.14-4.03-.3-6.59-.33-.11,.06-.22,.11-.34,.15-.2,.06-.4,.15-.61,.15l-.32,.03c-.11,.02-.21-.02-.31-.03-.21-.04-.42-.04-.62-.14l-.32-.12c-.12,0-.24,.01-.36,.02l-.7,.9c-.24,.36-.63,.59-.93,.89-.31,.3-.74,.44-1.11,.66-.41,.12-.82,.28-1.25,.33-.85,.15-1.71,.21-2.55,.4-.42,.08-.82,.26-1.23,.38-.31,.12-.61,.27-.91,.4,3.93,0,7.88,0,11.07,0l-1.55,.03c-.38,.03,1.3,0,2.26,.02,.2-.01,2.46-.04,.18-.05h2.21c1.99,.07-5.04,.06-7.23,.11-.33-.03-2.27-.01-1.79-.05,.59,0,1.3,0,1.36-.02-.88-.02-3.05,0-3.2,.02,2.08,.03-2.17,.02,.14,.04-.94,0-2.18-.02-2.72,0-.27,0-.63-.05,.01-.07-.2,0-.5,0-.84,0l-.18,.08c-1.56,.74-3.05,1.59-4.62,2.31-.39,.19-.78,.36-1.19,.51-.4,.17-.8,.31-1.22,.42-.41,.13-.83,.25-1.25,.31-.42,.08-.85,.16-1.28,.19l-20.53,1.93c-.02,.17-.05,.33-.09,.49,2.65-.01,5.71,0,8.1-.01l-.6,.07c3.5,0,.28-.06,3.96-.08,2.01,0,4.4-.01,6.03,.02-1.07,0-.88,.02-1.52,.04,1.26,0,2.58-.03,3.65-.03-.32,0-2.87,.01-3.13,.04q-.26,0-.16-.01c-.81,0-1.4,0-1.45,.02h1.19c-1.67,.05-3.1,0-3.52,.03h.07c-2.27-.02-3.11,0-5.34,0-.75-.06-2.25-.03-3.97-.06,.99,.02-.98,.04-.78,.07,1.39,0,1.73-.04,3.19-.02-.45,0-1.22,.02-.38,.03-2.58,.02-3.82,0-5.37-.02-.1,.36-.23,.7-.44,1.01-.17,.24-.37,.46-.61,.63-.24,.17-.49,.32-.77,.41-.55,.2-1.14,.27-1.71,.26-.57,0-1.13-.09-1.69-.2l-1.28,1.03-1.36,.92-.25,.81-.1,.86,.02,.41c.31,0,.61,0,.9,0h-.45c-.79,.05,3.06,.04,.16,.09,3.11,.02,1.98-.07,4.32-.07-.91,0-.29,.02-.03,.03,2.97-.06,7.92-.04,11.43-.05l-.6,.07c3.5,0,.28-.06,3.96-.08,2.01,0,4.4-.01,6.03,.02-1.07,0-.88,.02-1.52,.04,1.26,0,2.58-.03,3.65-.03-.32,0-2.87,.01-3.13,.04q-.26,0-.16-.02c-.81,0-1.4,0-1.45,.02h1.19c-1.67,.05-3.1,0-3.52,.03h.07c-2.27-.02-3.11,0-5.34,0-.75-.06-2.23-.03-3.93-.05,.88,.02-1.02,.04-.83,.07,1.39,0,1.73-.04,3.19-.02-.45,0-1.22,.02-.38,.03-3.52,.03-4.54-.03-7.27-.04l.21,.03-1.18-.04c.49,.04-.93,.03-1.92,.04h.37c-1.3-.01-2.65,0-2.84,.02-1.66,0,.51-.02-.56-.03h-.37l.02,.37,.14,.86c.13,.57,.28,1.13,.46,1.69l.53,1.68c.16,.53,.3,1.07,.4,1.62,.16,0,.2,0,0,.02v.02c1.93,0,1.31-.07,3.36-.08-.91,0-.29,.02-.03,.03,2.97-.06,7.92-.05,11.43-.05l-.6,.07c3.5,0,.28-.06,3.96-.08,2.01,0,4.4-.01,6.03,.02-1.07,0-.88,.02-1.52,.04,1.26,0,2.58-.03,3.65-.03-.32,0-2.87,.01-3.13,.04q-.26,0-.16-.01c-.81,0-1.4,0-1.45,.02h1.19c-1.67,.05-3.1,0-3.52,.03h.07c-2.27-.03-3.11,0-5.34,0-.75-.06-2.25-.03-3.97-.06,.99,.02-.98,.04-.78,.07,1.39,0,1.73-.04,3.19-.02-.45,0-1.22,.02-.38,.03-3.52,.03-4.54-.03-7.27-.04l.21,.02-1.18-.04c.49,.04-.93,.03-1.92,.04h.37c-.81,0-1.65,0-2.21,0,0,.02,0,.03,0,.05,.1,.58,.16,1.18,.12,1.77,0,.3-.07,.59-.13,.88-.04,.3-.17,.57-.28,.84-.06,.14-.11,.28-.18,.41l-.25,.37c-.17,.25-.32,.51-.54,.71-.21,.21-.4,.42-.62,.64-.25,.17-.49,.36-.79,.44-.07,.03-.14,.04-.21,.06,.76,0,1.52,0,2.21,0h-.45c-.79,.05,3.06,.04,.16,.09,3.11,.02,1.98-.07,4.32-.07-.91,0-.29,.02-.03,.03,2.97-.06,7.92-.05,11.43-.05l-.6,.07c3.5,0,.28-.06,3.96-.08,2.01,0,4.4-.01,6.03,.02-1.07,0-.88,.02-1.52,.04,1.26,0,2.58-.03,3.65-.03-.32,0-2.87,.01-3.13,.04q-.26,0-.16-.02c-.81,0-1.4,0-1.45,.02h1.19c-1.67,.05-3.1,0-3.52,.03h.07c-2.27-.02-3.11,0-5.34,0-.75-.06-2.22-.03-3.92-.05,.87,.02-1.02,.04-.83,.07,1.39,0,1.73-.04,3.19-.02-.45,0-1.22,.02-.38,.03-3.52,.03-4.54-.03-7.27-.04l.21,.03-1.18-.04c.49,.04-.93,.03-1.92,.03h.37c-1.3-.01-2.65,0-2.84,.02-1.66,0,.51-.02-.56-.03l-1.45,.02c-1.02-.02,.68,0-.34-.03h-.19c-.42,.08-.85,.07-1.28,.05-.06,0-.11-.02-.17-.03-.62,0-1.33,0-2.25,.01,.06-.02,.35-.04-.36-.04,1.75,0,.61-.03,.66-.05,.4,0,.92,0,1.5,0-.96-.18-1.88-.53-2.74-.97-.53-.27-1.03-.58-1.52-.9l-.71-.53-.67-.58c-.43-.41-.84-.84-1.2-1.31-.18-.24-.33-.49-.5-.74-.12-.21-.22-.43-.33-.65l-.27,.34c-.12,.17-.28,.29-.42,.43-.14,.15-.31,.26-.47,.38-.16,.13-.33,.23-.51,.32-.71,.39-1.5,.58-2.28,.72-.78,.15-1.56,.27-2.28,.56l-.52,.25c-.16,.11-.32,.21-.47,.33-.14,.13-.29,.26-.41,.4l-.36,.46-.04,.05h-.04c-.3,.02-.6,.08-.9,.07h-.46l-.46-.09c-.3-.07-.59-.21-.84-.4-.23-.21-.43-.46-.57-.74-.28-.55-.44-1.12-.7-1.65-.13-.26-.29-.5-.47-.72l-.3-.29-.37-.25c-.24-.13-.52-.26-.77-.39l-.73-.27c-1.69-.02-3.73-.05-5.54-.07h-.07c-.08,0-.17,0-.27,0-.17,.33-.34,.66-.52,.98l-1.61,2.34-1.83,2.17c-.24,.25-.49,.5-.73,.75,2.91,0,5.8,0,8.64,0,2.49-.01,4.18-.02,6.47-.01h.16c2.38,.02,6.35,0,8.72-.02,.26,0,.3,.02,.2,.03,2.01,0,2.84-.03,4.72-.02,.43,.02-1.29,.04,.4,.05-.77,.01-2.43,0-2.58,.03,1.28,0,1.88,0,2.03,.02,.22,0,.29,0,.05,0h-.05c-.83,0-3.93,0-2.69-.05-1.29,.02-3.04,.04-4.07,.06h.11l-.81,.02,.7-.02c-.33-.01-1.38-.01-1.87-.02,1-.02,4.18-.01,3-.05-2.42,0-4.28-.02-6.48-.01l.56,.03c-1.6-.02-2.55,.04-4.69,.03,.06-.02,.18-.05-.99-.05-.32,0-.12,.04-1.33,.03,.61,.01,.77,.02,.91,.03,.73,0,1.39,.02,1.86,.03-1.48,0-1.65-.02-1.86-.03-1.78-.02-4.1-.05-6.11-.08-.5,.02-1.77,.03-.63,.06-1.74,0-1.5-.03-3.02-.03l-.29,.02c-.51,0-.83,0-1.11,0-.41,.41-.82,.81-1.23,1.22-1.4,1.27-2.85,2.5-4.44,3.53-.4,.26-.77,.55-1.18,.79l-1.23,.67c5.72,0,11.32,0,16.76,0,2.5-.01,4.19-.02,6.47-.01h0c2.36,.02,6.46,0,8.88-.02,.26,0,.3,.02,.2,.02,2.01,0,2.84-.02,4.72-.02,.43,.02-1.29,.04,.4,.05-.77,.01-2.43,0-2.58,.03,1.28,0,1.88,0,2.03,.02,.22,0,.29,0,.05,0h-.05c-.83,0-3.93,0-2.69-.05-1.29,.02-3.04,.04-4.07,.06h0c-.33-.01-1.38-.01-1.87-.02,1-.02,4.18-.01,3-.05-2.42,0-4.28-.02-6.48-.01l.56,.03c-1.6-.02-2.55,.04-4.69,.03,.06-.02,.18-.05-.99-.05-.32,0-.12,.03-1.33,.03,.61,.01,.77,.02,.91,.03,.73,.01,1.39,.02,1.86,.03-1.48,0-1.65-.02-1.86-.03-1.78-.02-4.1-.05-6.11-.08-.5,.02-1.77,.03-.63,.06-1.74,0-1.5-.03-3.02-.03l-.29,.02c-1.07,0-1.3,0-2.04-.02,.44,.06-4.5,.02-3.94,.05-.85-.02-2.01-.03-3.28-.03l-1.19,.65-1.32,.52c-1.71,.84-3.69,1.09-5.56,.87-1.88-.22-3.73-.7-5.61-.58-1.89,.1-3.72,.68-5.28,1.75-1.2,.84-2.21,1.91-3.19,2.99,.13,0,.42,0,1.05,0,.67,.06,3.53,0,3.35,.06,.68,0,.31-.05,.05-.06,2.27,.01,5.4-.03,7.29,.01h-1.53c-.24,.03,1.44,0,1.86,.03l1.25-.05c8.84,.02,17.43,0,25.66,0,2.5,0,4.19-.02,6.47-.01h0c2.36,.02,6.46,0,8.88-.02,.26,0,.3,.02,.2,.03,2.01,0,2.84-.03,4.72-.02,.43,.02-1.29,.04,.4,.05-.77,.01-2.43,0-2.58,.03,1.28,0,1.88,0,2.03,.02,.22,0,.29,0,.05,0h-.05c-.83,0-3.93,0-2.69-.05-1.29,.02-3.04,.04-4.07,.06h.11l-.81,.02,.7-.02c-.33-.01-1.38-.01-1.87-.02,1-.02,4.18-.01,3-.05-2.42,0-4.28-.02-6.48-.01l.56,.03c-1.6-.02-2.55,.04-4.69,.03,.06-.02,.18-.05-.99-.05-.32,0-.12,.04-1.33,.03,.61,.01,.77,.02,.91,.03,.73,0,1.39,.02,1.86,.03-1.48,0-1.65-.02-1.86-.03-1.78-.02-4.1-.05-6.11-.08-.5,.02-1.77,.03-.63,.06-1.74,0-1.5-.03-3.02-.03l-.29,.02c-1.07,0-1.3,0-2.04-.02,.44,.06-4.5,.02-3.94,.05-2.37-.05-7.18-.05-10.15-.03l.61-.03c-5.48,.02-12.08,.07-15.99,.07-.25,.28-.51,.56-.76,.84l-3.85,4.16c-.37,.39-.75,.78-1.13,1.16,1.05,0,1.79,.02,2.59,.04h-1.36c.72,.01,.82,.02,1.21,.03-.62,0-1.53,.02-2.52,.03-.91,.94-1.84,1.86-2.83,2.72-1.42,1.24-2.95,2.39-4.64,3.25-1.68,.85-3.58,1.38-5.48,1.2-.94-.06-1.86-.32-2.79-.49l-2.25-.46c-.15,0-.3,0-.45,0l-.63-.05h.92l-.36-.06c-1.85-.38-3.71-.72-5.59-.87-.94-.09-1.88,0-2.83-.01-.93,.15-1.87,.25-2.78,.48-.48,.16-.96,.31-1.44,.46,.66,0,.75,.02,1.81,0,1.2,0,1.9-.03,1.16-.04h-.08c.85-.01,1.52-.02,2.05,0-.77,.01-1.89,.06-3.87,.07l-1.11-.02c-.41,.13-.81,.26-1.2,.43l-2.55,1.22-.17,.67-.24,.66c-.19,.43-.4,.84-.63,1.25-.23,.41-.45,.81-.67,1.23l-.29,.63-.04,.12c.81,.02,.23,.02,1.08,.08h-1.11l-.16,.46h0c-.76,.09-1.51,.17-2.27,.23l-1.14,.02c-.38-.03-.76-.1-1.13-.14,.38,.05,.75,.11,1.13,.14l1.14-.03c.76-.07,1.51-.15,2.27-.23l.16-.45h-.94l.12-.03c-2.14-.01-1.42,.03-3.36,0,.61-.03,1.9-.03,2.42-.05-1.21,0-2.4,.02-3.21,.02-.33-.03,2.16-.06,3.28-.07,.89,.01,1.41,.02,1.72,.03l.04-.12,.29-.63c.21-.41,.44-.82,.67-1.23,.23-.41,.44-.82,.62-1.25l.24-.65,.17-.68h0l2.55-1.24c.36-.16,.74-.28,1.12-.41h-.28c.12,0,.22,0,.31-.01,.51-.16,1.03-.32,1.53-.5,.91-.23,1.86-.33,2.79-.49,.94,0,1.89-.08,2.83,0,1.89,.14,3.75,.48,5.6,.86l.71,.14h.58c.93-.03,2.68-.03,3.84-.03,.96,.04-2.46,0-1.96,.04,1.65,0,1.91-.03,3.92-.02-1.03,0-.87,.02-1.29,.04l4.53-.05c-1.69,.02-1.08,.1-3.64,.1-2.43,0-4.5-.04-5.69-.03,.52,0,1.27,0,1.04-.03-.3-.02-.74,0-1.21,0l1.95,.4c.93,.16,1.84,.42,2.79,.48,1.88,.17,3.76-.35,5.43-1.2,1.68-.85,3.2-2,4.61-3.24,.95-.84,1.85-1.73,2.74-2.64-1.06,0-2.22,0-3.25-.02,1.3,0,1.33,.01,2.27,.02-1.3-.04,2.19-.04-1.15-.07-1.26,0-3.06,.07-4.14,.02-.1,0,.53-.03,.44-.04l.56,.02,2.36-.03c1.27,0,2.22,0,3,0,.4-.41,.81-.82,1.2-1.24l3.84-4.17c.23-.25,.45-.5,.68-.75-.16,0-.32,0-.47,0-.04-.01,.17-.01,.48-.01l.02-.02c-.68,0-1.29,0-1.16-.02,.83,0,1.09,0,1.19-.01,1.02-1.13,2.06-2.25,3.31-3.14,1.56-1.09,3.46-1.68,5.34-1.79,1.92-.13,3.78,.36,5.64,.56,1.86,.21,3.78-.04,5.48-.87l1.32-.52,.87-.48c-2.2,0-4.67,0-6.47,0l.61-.03c-5.8,.02-12.85,.08-16.64,.06-.1-.03,1.29,0,2.04-.02-.43-.02-2.95,0-2.69-.04,2.36,0,.18-.05,2.45-.04,.67,.06,3.53,0,3.35,.06,.68,0,.31-.05,.05-.06,2.27,.01,5.4-.03,7.29,.01h-1.53c-.24,.03,1.44,0,1.86,.03l1.25-.04c2.87,0,5.69,0,8.5,0l.29-.16,1.23-.68c.41-.24,.78-.53,1.17-.79,1.58-1.03,3.02-2.26,4.41-3.52,.36-.36,.72-.71,1.07-1.07-.19,0-.38,0-.63,0,.44,.06-4.5,.02-3.94,.05-2.37-.05-7.18-.05-10.15-.03l.61-.03c-5.8,.02-12.85,.08-16.64,.07-.1-.03,1.29,0,2.04-.02-.43-.02-2.95,0-2.69-.04,2.36,0,.18-.05,2.45-.04,.67,.06,3.53,0,3.35,.06,.68,0,.31-.05,.05-.06,2.27,.01,5.4-.03,7.29,.01h-1.53c-.24,.03,1.44,0,1.86,.03l1.25-.05c5.69,.01,11.27,0,16.72,0,.3-.29,.59-.59,.88-.89l1.82-2.16,1.59-2.33c.16-.28,.3-.57,.45-.85-.48,.01-.87,.02-.07,.04-1.74,0-1.5-.03-3.02-.03l-.29,.02c-1.07,0-1.3,0-2.04-.02,.44,.06-4.5,.02-3.94,.05-2.37-.05-7.18-.05-10.15-.02l.61-.03c-5.8,.02-12.85,.08-16.64,.07-.1-.03,1.29,0,2.04-.02-.43-.02-2.95,0-2.69-.04,2.36,0,.18-.05,2.45-.04,.67,.06,3.53,0,3.35,.06,.68,0,.31-.05,.05-.06,2.27,.01,5.4-.03,7.29,.01h-1.53c-.24,.03,1.44,0,1.86,.03l1.25-.04c7.37,.02,14.51,0,21.47,0,.28-.54,.56-1.09,.84-1.63l.05-.1,.11,.04,.82,.33,.84,.27c.57,.15,1.15,.3,1.73,.43,.58,.14,1.16,.29,1.73,.47l.5,.19c1.35,0,2.57,0,4.04,0h.18c2.37,.02,6.33,0,8.7-.02,.26,0,.3,.02,.2,.03,2.01,0,2.84-.02,4.72-.02,.43,.02-1.29,.04,.4,.05-.77,.01-2.43,0-2.58,.03,1.28,0,1.88,0,2.03,.02,.22,0,.29,0,.05,0h-.05c-.83,0-3.93,0-2.69-.05-1.29,.02-3.04,.04-4.07,.06h.11l-.81,.02,.7-.02c-.33-.01-1.38-.01-1.87-.02,1-.02,4.18-.01,3-.05-2.42,0-4.28-.02-6.48-.01l.56,.03c-1.6-.02-2.55,.04-4.69,.03,.06-.02,.18-.05-.99-.05-.15,0-.19,.01-.31,.02l.11,.04c.65,0,1.22,.02,1.65,.03-1.02,0-1.41-.01-1.63-.02l.07,.03c.27,.14,.54,.26,.82,.42l.37,.25,.34,.33c.2,.24,.37,.5,.5,.77,.27,.55,.42,1.13,.69,1.64,.12,.26,.31,.48,.51,.67,.22,.17,.48,.29,.75,.36l.42,.07h.44c.28,.02,.55-.03,.83-.04l.34-.43c.14-.15,.29-.28,.44-.42,.16-.13,.33-.23,.5-.35l.55-.27c.75-.3,1.55-.42,2.32-.57,.77-.15,1.54-.33,2.22-.7,.17-.09,.34-.18,.49-.3,.16-.11,.32-.22,.45-.36,.13-.14,.29-.25,.41-.41l.36-.45,.1-.13,.08,.15c.13,.26,.25,.52,.39,.77,.16,.24,.31,.49,.49,.72,.35,.46,.75,.88,1.17,1.28l.66,.57,.7,.52c.48,.32,.98,.63,1.5,.89,1.03,.53,2.14,.93,3.3,1.06,.57,.04,1.16,.05,1.69-.16,.28-.07,.5-.25,.74-.4l.61-.62c.22-.2,.36-.45,.53-.69l.24-.36c.07-.13,.12-.26,.17-.4,.12-.26,.24-.53,.28-.81,.06-.28,.14-.56,.13-.85,.05-.58-.01-1.16-.11-1.73,0-.02-.01-.05-.02-.07-.24,0-.42,0-.48,.01-1.66,0,.51-.02-.56-.03l-1.45,.02c-1.02-.02,.68,0-.34-.03-1.09,.02-2.08,.01-3.89,.03,.06-.02,.35-.04-.36-.04,1.75,0,.61-.03,.66-.04,1.3,0,3.92-.02,5.89-.02h-.45c-.42,.03,.46,.04,.95,.05-.1-.53-.24-1.05-.39-1.57l-.52-1.68c-.18-.56-.33-1.13-.46-1.71l-.14-.88-.02-.38h-.94c-1.02,0,.68,0-.34-.02-1.09,.02-2.08,.01-3.89,.03,.06-.02,.35-.04-.36-.04,1.75,0,.61-.03,.66-.05,1.09,0,3.08-.01,4.85-.02l-.02-.42,.1-.89,.27-.85v-.02h.02l1.38-.95,1.29-1.04,.03-.02h.03c.56,.13,1.13,.21,1.69,.22,.57,0,1.14-.06,1.67-.25,.27-.09,.51-.23,.74-.4,.22-.17,.42-.37,.58-.61,.2-.29,.33-.61,.42-.95-.53,0-1.11-.01-1.79-.01l.21,.02-1.18-.04c.49,.04-.93,.03-1.92,.04h.37c-1.3-.01-2.65,0-2.84,.02-1.66,0,.51-.02-.56-.03l-1.45,.02c-1.02-.02,.68,0-.34-.03-1.09,.02-2.08,.01-3.89,.03,.06-.02,.35-.04-.36-.04,1.75,0,.61-.03,.66-.04,1.3,0,3.92-.02,5.89-.03h-.45c-.79,.05,3.06,.04,.16,.09,3.11,.02,1.98-.07,4.32-.07-.91,0-.29,.02-.03,.03,.91-.02,2.02-.03,3.21-.04,.05-.18,.08-.37,.11-.55v-.04h.05l20.57-1.88c.43-.02,.85-.11,1.27-.19,.43-.06,.84-.18,1.25-.31,.41-.11,.82-.25,1.22-.42,.4-.15,.8-.31,1.19-.5,1.57-.72,3.06-1.57,4.62-2.3,.03-.01,.07-.03,.1-.04-.64,0-1.41,.02-1.95,0-1.41,.03,1.7,.05,.25,.08-1.34-.01,.48-.03-.94-.04l-.96,.07c-3.51-.03-3.04,.04-6.09,0,1.41-.03,1.72-.01,3.56-.02-.52-.02-.91-.03-.04-.05-.06,.02,.62,0,1.33,.01l-1.2-.05c.9-.01,2.06-.01,2.36-.03h-2.47c2,0,4.13,0,6.27,0,.33-.15,.65-.3,.99-.44,.41-.12,.81-.3,1.23-.38,.84-.19,1.71-.24,2.55-.39,.43-.05,.83-.21,1.24-.33,.36-.22,.79-.36,1.1-.66,.31-.3,.69-.53,.93-.89l.69-.89c-3.23,.13-6.3,.56-7.89,1.64,.03,0,.06,0,.09,0-.03,.52-.07,.52-.1,0h.01c-.77-.06-2.12-.21-3.29-.13-2.31-2.93-19.87-1.93-23.5-.85-3.15-1.64-15.2-2.28-17.67,.71-.34-.54,.12-1.15-.23-1.69-1.21-.03-2.03,.93-2.58,.99-.5-.33-.56-1.18-1.33-1.17-.12,.15-.68,1.24-.81,1.35-.67-.31-.17-.66-.65-1.19-.69,.06-.84,.74-1.35,1.15-1.01-.19-1.9-.99-3.05-1.13-.38,.57-.14,1.15-.78,1.63-.57-.21-.54-1.09-1.33-1.13-1.52,.08-3.01,.18-4.53,.16-.09,.37-.17,.74-.24,1.12-3.99-.03-6.99-1.72-10.45-.65-.16-.58,.63-.53,.51-1.1-1.12-.06-1.57,.37-2.46,.45-.41-.54-.86-.88-1.33-1.08h-2.13c-1.85,.7-3.58,2.95-4.1,4.93,3.53,0,7.02,0,10.46,0h.02s.03,0,.04,0c1.19,0,2.42,0,3.59,0,2.5-.01,4.19-.02,6.47-.01h0c2.36,.02,6.46,0,8.88-.02,.26,0,.3,.02,.2,.03,2.01,0,2.84-.02,4.72-.02,.43,.02-1.29,.04,.4,.05-.77,.01-2.43,0-2.58,.03,1.28,0,1.88,0,2.03,.02,.22,0,.29,0,.05,0h-.05c-.83,0-3.93,0-2.69-.05-1.29,.02-3.04,.04-4.07,.06h.11l-.81,.02,.7-.02c-.33-.01-1.38-.01-1.87-.02,1-.02,4.18-.01,3-.05-2.42,0-4.28-.02-6.48-.01l.56,.03c-1.6-.02-2.55,.04-4.69,.03,.06-.02,.18-.05-.99-.05-.32,0-.12,.03-1.33,.03,.61,.01,.77,.02,.91,.03,.73,0,1.39,.02,1.86,.03-1.48,0-1.65-.02-1.86-.03-1.77-.02-4.07-.05-6.07-.08h-.06c-.51,.02-1.74,.03-.61,.06-1.74,0-1.5-.03-3.02-.03l-.29,.02c-1.07,0-1.3,0-2.04-.02,.44,.06-4.5,.02-3.94,.05-.18,0-.37,0-.57,0,0,.02-.01,.04-.02,.05-.88,.73-2.57,1.75-3.63,2.16,.74-.96,.69-1.34,1.04-2.24-2.31-.01-5.03,0-6.97,0l.61-.03c-5.8,.02-12.85,.08-16.64,.07-.1-.03,1.29,0,2.04-.02-.43-.02-2.95,0-2.69-.04,2.36,0,.18-.05,2.45-.04,.67,.06,3.53,0,3.35,.06,.68,0,.31-.05,.05-.06,2.27,.01,5.4-.03,7.29,.01h-1.53c-.24,.03,1.44,0,1.86,.03l1.25-.05c3.02,0,5.99,.01,8.94,.01,.04-.1,.08-.2,.14-.32,1.91-1.15,1.67-1.34,2.47-3.35-7.95-.69-14.57-.22-21.9,.42-6.64,.58-12.47-1.28-18.69,.55-2.29-2.31-9.29-1.14-12.62-1.8-.25,.4-1.12,1.51-1.45,1.95C14.33,2.19,4.31-.3-1.08,1.86v3.74l1.45-.02-.38,.03H-1.08v6.24l1.45-.02-.38,.03H-1.08v6.24l1.45-.02-.38,.03H-1.08v6.24l1.45-.02-.38,.03H-1.08v6.24l1.45-.02-.38,.03H-1.08v6.24l1.45-.02-.38,.03H-1.08v6.24l1.45-.02-.38,.03H-1.08v6.24l1.45-.02-.38,.03H-1.08v6.24l1.45-.02-.38,.03H-1.08v6.25l1.45-.02-.38,.03H-1.08v6.24h0v6.25l1.45-.02Z"/></g></svg>