<?xml version="1.0" encoding="utf-8"?>
<!-- Generator: Adobe Illustrator 13.0.0, SVG Export Plug-In . SVG Version: 6.00 Build 14948)  -->
<!DOCTYPE svg PUBLIC "-//W3C//DTD SVG 1.1//EN" "http://www.w3.org/Graphics/SVG/1.1/DTD/svg11.dtd">
<svg version="1.1" xmlns="http://www.w3.org/2000/svg" xmlns:xlink="http://www.w3.org/1999/xlink" x="0px" y="0px" width="45px"
	 height="45px" viewBox="0 0 45 45" enable-background="new 0 0 45 45" xml:space="preserve">
<g id="Layer_2">
</g>
<g id="Layer_1">
	<rect fill="none" width="45" height="45"/>
	<path fill="#505050" d="M37.099,45H7.901C3.556,45,0,41.444,0,37.099V7.901C0,3.556,3.556,0,7.901,0h29.197
		C41.444,0,45,3.556,45,7.901v29.198C45,41.444,41.444,45,37.099,45"/>
	<path fill="#FFFFFF" d="M22.515,5.173c-9.753,0-17.636,7.941-17.636,17.767c0,7.853,5.052,14.5,12.058,16.853
		c0.877,0.177,1.197-0.383,1.197-0.853c0-0.411-0.029-1.823-0.029-3.295c-4.906,1.059-5.927-2.117-5.927-2.117
		c-0.789-2.06-1.957-2.589-1.957-2.589c-1.605-1.088,0.117-1.088,0.117-1.088c1.781,0.119,2.715,1.823,2.715,1.823
		c1.576,2.706,4.117,1.941,5.138,1.472c0.146-1.146,0.613-1.942,1.11-2.382c-3.913-0.412-8.03-1.942-8.03-8.766
		c0-1.942,0.702-3.53,1.811-4.766c-0.175-0.44-0.788-2.265,0.175-4.706c0,0,1.489-0.472,4.847,1.824
		c1.437-0.39,2.92-0.587,4.409-0.589c1.489,0,3.006,0.207,4.409,0.589c3.356-2.295,4.846-1.824,4.846-1.824
		c0.964,2.441,0.351,4.266,0.175,4.706c1.14,1.235,1.811,2.824,1.811,4.766c0,6.824-4.116,8.323-8.058,8.766
		c0.644,0.558,1.197,1.616,1.197,3.292c0,2.383-0.029,4.295-0.029,4.884c0,0.47,0.32,1.029,1.197,0.854
		C35.069,37.44,40.12,30.793,40.12,22.94C40.149,13.114,32.236,5.173,22.515,5.173z"/>
</g>
</svg>
