<svg id="Layer_1" data-name="Layer 1" xmlns="http://www.w3.org/2000/svg" viewBox="0 0 45 45"><defs><style>.cls-1{fill:#5171ff;}.cls-2{fill:#fefefe;}</style></defs><rect class="cls-1" width="45" height="45" rx="7.9"/><path class="cls-2" d="M23.94,19.58a7.38,7.38,0,0,1,2.3-2.38,7.78,7.78,0,0,1,5.2-1,7.36,7.36,0,0,1,3.82,1.31,6.86,6.86,0,0,1,2.49,4.21,20.75,20.75,0,0,1,.42,4.65c0,3.73,0,7.46,0,11.2,0,.35-.1.44-.44.43H32c-.33,0-.41-.09-.41-.41q0-5.34,0-10.66a9.51,9.51,0,0,0-.31-2.65A3,3,0,0,0,28,21.93c-2.27.12-3.46,1.24-3.75,3.56a13.26,13.26,0,0,0-.11,1.67c0,3.45,0,6.91,0,10.36,0,.38-.11.46-.46.45H17.92c-.33,0-.41-.1-.41-.42V17.08c0-.31,0-.45.4-.44,1.85,0,3.7,0,5.55,0,.32,0,.41.09.4.4,0,.7,0,1.39,0,2.09A.64.64,0,0,0,23.94,19.58Z"/><path class="cls-2" d="M6.72,27.28c0-3.4,0-6.79,0-10.19,0-.34.07-.45.43-.45,1.93,0,3.87,0,5.8,0,.3,0,.4.07.4.39V37.59c0,.29-.07.38-.37.38H7.09c-.33,0-.38-.12-.38-.41Q6.73,32.43,6.72,27.28Z"/><path class="cls-2" d="M6.2,9.88A3.84,3.84,0,1,1,10,13.71,3.86,3.86,0,0,1,6.2,9.88Z"/></svg>