<?xml version="1.0" encoding="utf-8"?>
<!-- Generator: Adobe Illustrator 13.0.0, SVG Export Plug-In . SVG Version: 6.00 Build 14948)  -->
<!DOCTYPE svg PUBLIC "-//W3C//DTD SVG 1.1//EN" "http://www.w3.org/Graphics/SVG/1.1/DTD/svg11.dtd">
<svg version="1.1" id="Layer_1" xmlns="http://www.w3.org/2000/svg" xmlns:xlink="http://www.w3.org/1999/xlink" x="0px" y="0px"
	 width="45px" height="45px" viewBox="0 0 45 45" enable-background="new 0 0 45 45" xml:space="preserve">
<g>
	<defs>
		<rect id="SVGID_1_" x="0" width="45" height="45"/>
	</defs>
	<clipPath id="SVGID_2_">
		<use xlink:href="#SVGID_1_"  overflow="visible"/>
	</clipPath>
	<path clip-path="url(#SVGID_2_)" fill="#505050" d="M37.099,45H7.902C3.556,45,0,41.444,0,37.099V7.901C0,3.556,3.556,0,7.902,0
		h29.197C41.445,0,45,3.556,45,7.901v29.198C45,41.444,41.445,45,37.099,45"/>
	<path clip-path="url(#SVGID_2_)" fill="#FEFEFE" d="M23.944,19.584c0.604-0.991,1.355-1.776,2.292-2.384
		c1.601-1.042,3.371-1.211,5.209-1.033c1.375,0.133,2.681,0.472,3.815,1.308c1.425,1.052,2.104,2.549,2.487,4.216
		c0.352,1.528,0.422,3.086,0.423,4.646c0.004,3.733-0.011,7.466-0.003,11.199c0.001,0.351-0.097,0.44-0.439,0.437
		c-1.919-0.016-3.839-0.016-5.758,0c-0.333,0.004-0.413-0.092-0.412-0.417c0.012-3.552,0.014-7.104,0.003-10.655
		c-0.003-0.891-0.06-1.78-0.309-2.646c-0.459-1.597-1.596-2.412-3.259-2.326c-2.278,0.119-3.463,1.245-3.757,3.562
		c-0.07,0.553-0.104,1.107-0.104,1.666c0.004,3.454-0.005,6.909,0.012,10.364c0.002,0.38-0.11,0.456-0.466,0.452
		c-1.92-0.017-3.84-0.016-5.759,0c-0.334,0.004-0.414-0.099-0.413-0.421c0.008-6.824,0.008-13.65,0.001-20.477
		c0-0.303,0.049-0.44,0.405-0.437c1.85,0.019,3.7,0.016,5.55,0.002c0.313-0.002,0.41,0.086,0.4,0.399
		c-0.021,0.696-0.009,1.393-0.004,2.09C23.86,19.262,23.816,19.406,23.944,19.584"/>
	<path clip-path="url(#SVGID_2_)" fill="#FEFEFE" d="M6.716,27.283c0-3.399,0.005-6.798-0.007-10.196
		c-0.001-0.337,0.071-0.452,0.43-0.448c1.934,0.018,3.867,0.015,5.8,0.002c0.306-0.002,0.406,0.073,0.406,0.393
		c-0.009,6.853-0.009,13.707-0.001,20.56c0,0.286-0.074,0.379-0.37,0.378c-1.961-0.013-3.923-0.015-5.884,0.001
		c-0.333,0.003-0.381-0.117-0.38-0.409C6.719,34.136,6.716,30.71,6.716,27.283"/>
	<path clip-path="url(#SVGID_2_)" fill="#FEFEFE" d="M6.201,9.876c-0.003-2.098,1.721-3.84,3.806-3.846
		c2.124-0.006,3.86,1.715,3.86,3.829c0.001,2.122-1.726,3.851-3.843,3.848C7.936,13.704,6.204,11.968,6.201,9.876"/>
</g>
</svg>
