<svg xmlns="http://www.w3.org/2000/svg" viewBox="0 0 78.99 45"><defs><style>.cls-1{fill:#5171ff;}.cls-2{fill:#333;}</style></defs><g id="H"><path id="H-2" data-name="H" class="cls-1" d="M49.81,45H34.64V0H49.81Zm15-16.59H48.78V15.94H64.85ZM63.82,0H79V45H63.82Z" transform="translate(-0.01)"/></g><g id="D"><path id="D-2" data-name="D" class="cls-2" d="M0,45V0H22.19A30.44,30.44,0,0,1,35.43,2.73a21.2,21.2,0,0,1,8.93,7.75,21.62,21.62,0,0,1,3.22,12,21.89,21.89,0,0,1-3.22,12.05,21.12,21.12,0,0,1-8.93,7.78A30.44,30.44,0,0,1,22.19,45ZM15.18,33.17h6.36A12.35,12.35,0,0,0,27.17,32a8.77,8.77,0,0,0,3.76-3.63,11.89,11.89,0,0,0,1.35-5.88,11.56,11.56,0,0,0-1.35-5.79,8.88,8.88,0,0,0-3.76-3.6,12.35,12.35,0,0,0-5.63-1.22H15.18Z" transform="translate(-0.01)"/></g></svg>