<?xml version="1.0" encoding="utf-8"?>
<!-- Generator: Adobe Illustrator 13.0.0, SVG Export Plug-In . SVG Version: 6.00 Build 14948)  -->
<!DOCTYPE svg PUBLIC "-//W3C//DTD SVG 1.1//EN" "http://www.w3.org/Graphics/SVG/1.1/DTD/svg11.dtd">
<svg version="1.1" id="Layer_1" xmlns="http://www.w3.org/2000/svg" xmlns:xlink="http://www.w3.org/1999/xlink" x="0px" y="0px"
	 width="500px" height="500px" viewBox="0 0 500 500" enable-background="new 0 0 500 500" xml:space="preserve">
<path d="M331.662,199.743h86.059v15.955h-34.172v83.672h-17.086v-83.672h-34.801V199.743z M189.696,199.743v15.955h-69.098v25.629
	h55.656v15.83h-55.656v26.383h69.098v15.83h-86.059v-99.627h86.31H189.696z M232.788,199.743h-22.363l80.155,99.753h22.487
	l-40.202-49.877l40.202-49.751H290.58L261.685,235.8l-28.896-35.932V199.743z M255.779,270.978l-11.308-13.82l-34.046,42.339h22.363
	L255.779,270.978z"/>
<path d="M104.265,299.37l-80.406-99.627H2.501v99.627h17.086V221.1l63.068,78.27H104.265z M421.616,298.867
	c-1.257,0-2.262-0.503-3.142-1.256c-0.88-0.754-1.382-2.01-1.382-3.267s0.377-2.262,1.257-3.14c0.879-0.88,2.01-1.257,3.267-1.257
	c1.256,0,2.261,0.377,3.14,1.257c1.52,1.384,1.835,3.654,0.754,5.401c-0.797,1.338-2.213,2.187-3.769,2.261H421.616z
	 M450.763,256.781h7.538v29.272c0,2.638-0.503,5.025-1.633,6.908c-1.134,1.897-2.792,3.425-4.775,4.398
	c-2.01,1.004-4.396,1.633-7.161,1.633c-2.513,0-4.647-0.503-6.658-1.257c-2.01-0.753-3.517-2.261-4.647-4.02
	c-1.132-1.634-1.759-3.769-1.759-6.281h7.538c0.125,1.004,0.376,2.01,0.879,2.764c0.502,0.754,1.257,1.507,2.01,1.884
	c0.88,0.503,1.885,0.629,3.016,0.629c1.257,0,2.261-0.251,3.015-0.754c0.887-0.529,1.589-1.319,2.011-2.262
	c0.377-1.005,0.628-2.261,0.628-3.769v-29.021V256.781z M489.583,268.213c-0.154-1.694-1.081-3.224-2.513-4.146
	c-1.62-0.994-3.502-1.477-5.402-1.381c-1.633,0-3.015,0.251-4.146,0.627c-1.13,0.503-2.01,1.257-2.513,2.011
	c-1.168,1.431-1.318,3.438-0.377,5.025c0.377,0.629,0.88,1.132,1.634,1.508l2.262,1.256l2.513,0.628l4.02,1.006
	c1.633,0.377,3.142,0.88,4.648,1.508c1.44,0.56,2.794,1.321,4.021,2.261c2.456,1.989,3.849,5.007,3.769,8.166
	c0,2.513-0.628,4.649-1.884,6.407c-1.385,1.965-3.303,3.491-5.528,4.398c-2.262,1.004-5.151,1.507-8.543,1.507
	c-3.267,0-6.156-0.503-8.543-1.507c-2.513-1.006-4.271-2.513-5.654-4.398c-1.396-2.078-2.141-4.529-2.135-7.034h7.537
	c0.092,2.663,1.854,4.98,4.397,5.778c1.257,0.503,2.764,0.754,4.272,0.754c1.633,0,3.14-0.251,4.396-0.754
	c1.256-0.502,2.262-1.256,3.016-2.136c0.651-0.87,1.005-1.928,1.005-3.016c0-1.13-0.252-2.01-0.879-2.764
	c-0.81-0.686-1.695-1.275-2.639-1.759l-4.021-1.256l-4.774-1.257c-3.518-0.88-6.281-2.136-8.292-4.02
	c-2.031-1.812-3.139-4.442-3.015-7.162c-0.021-2.274,0.733-4.49,2.136-6.281c1.351-1.946,3.224-3.47,5.402-4.397
	c2.513-1.004,5.025-1.507,8.04-1.507c2.89,0,5.528,0.503,7.789,1.507c2.262,1.005,4.021,2.513,5.402,4.271
	c1.257,1.759,1.885,3.77,1.885,6.281h-7.287V268.213z"/>
</svg>
