<?xml version="1.0" standalone="no"?>
<!DOCTYPE svg PUBLIC "-//W3C//DTD SVG 20010904//EN"
 "http://www.w3.org/TR/2001/REC-SVG-20010904/DTD/svg10.dtd">
<svg version="1.0" xmlns="http://www.w3.org/2000/svg"
 width="1264.000000pt" height="1264.000000pt" viewBox="0 0 1264.000000 1264.000000"
 preserveAspectRatio="xMidYMid meet">
<metadata>
Created by potrace 1.14, written by Peter Selinger 2001-2017
</metadata>
<g transform="translate(0.000000,1264.000000) scale(0.100000,-0.100000)"
fill="#000000" stroke="none">
<path d="M0 6320 l0 -3601 2013 4 c1106 1 2021 6 2033 9 11 3 63 9 115 13 52
4 96 8 99 10 3 2 28 6 55 9 121 15 139 18 255 41 41 9 90 17 107 19 18 3 36 7
41 10 5 3 24 8 43 11 39 7 192 47 259 68 25 7 48 14 52 16 12 3 27 7 103 32
39 13 75 24 80 25 6 1 70 25 144 53 73 28 136 51 140 51 3 0 5 -83 4 -185 l-1
-185 1214 0 1214 0 0 1325 c0 729 3 1326 8 1326 4 1 508 2 1120 3 l1112 1 0
-120 c1 -66 1 -663 1 -1327 l0 -1208 1214 0 1215 0 0 3600 0 3600 -1214 0
-1215 0 0 -1232 c0 -678 -1 -1252 -1 -1275 l0 -43 -1120 0 -1120 0 0 1275 0
1275 -1214 0 -1214 0 0 -186 c0 -102 -2 -187 -4 -189 -2 -2 -37 10 -78 27 -79
31 -254 96 -280 103 -8 2 -44 13 -80 25 -36 12 -72 23 -81 25 -9 2 -47 12 -85
23 -38 11 -85 24 -104 28 -19 4 -39 9 -45 10 -8 2 -191 43 -237 52 -5 1 -9 2
-10 3 -5 1 -53 9 -118 19 -136 20 -135 20 -290 36 -30 3 -73 8 -95 12 -22 3
-939 7 -2037 9 l-1998 4 0 -3601z m3205 1700 c108 3 198 4 199 3 1 -2 73 -5
159 -7 87 -3 161 -7 165 -9 4 -3 34 -8 67 -12 32 -3 62 -8 65 -10 3 -2 23 -6
45 -10 44 -7 53 -9 75 -18 8 -3 38 -11 65 -18 28 -6 55 -15 60 -18 6 -3 15 -6
20 -7 10 -2 144 -53 198 -77 15 -7 27 -15 27 -18 0 -4 11 -10 24 -13 28 -7
103 -54 196 -123 63 -47 250 -229 250 -243 0 -4 9 -18 21 -31 34 -39 86 -124
130 -212 45 -89 47 -94 79 -182 13 -33 26 -69 31 -80 4 -11 10 -31 12 -45 3
-14 12 -50 20 -80 21 -76 25 -100 42 -250 9 -73 9 -406 0 -490 -14 -137 -54
-312 -102 -445 -14 -38 -26 -76 -26 -82 0 -7 -3 -13 -6 -13 -3 0 -12 -15 -20
-32 -29 -71 -77 -166 -103 -203 -159 -225 -294 -350 -523 -481 -27 -16 -52
-28 -55 -28 -3 0 -27 -9 -55 -21 -107 -47 -292 -102 -402 -120 -18 -3 -48 -8
-65 -11 -18 -3 -49 -8 -68 -11 -19 -3 -320 -6 -667 -8 l-633 -3 -1 27 c0 35
-1 3307 0 3349 l1 33 266 -2 c146 0 268 1 271 4 3 3 13 3 23 -1 10 -4 107 -5
215 -2z"/>
</g>
</svg>
